<svg version="1" xmlns="http://www.w3.org/2000/svg" width="574.667" height="574.667" viewBox="0 0 431.000000 431.000000"><path d="M70.2 20.3l-5.3 5.3.3 10 .3 9.9L75 48l9.5 2.5.3 10.1.3 10.1 5.7 1.6c3.1.8 7.6 2 9.9 2.6l4.2 1.2.3 10.1.3 10.2 9.8 2.5 9.7 2.5v3.4c0 3.7-.2 3.7-7.5 1.7-1.5-.4-3.4.8-7.2 4.6-4.4 4.3-5.3 5.8-5.3 8.7 0 2.5-.4 3.3-1.4 2.9-.8-.3-3.1-.9-5-1.2-3.3-.7-4-.3-8.5 4.1-3.8 3.8-5 5.7-5.3 8.5l-.3 3.5-14-3.8c-7.7-2-14.3-3.8-14.6-3.8-.3 0-2.9 2.3-5.7 5l-5.2 5v179.9l5.3 1.5c2.8.8 7.3 2 9.9 2.6l4.7 1.2.3 10.2.3 10.1 8 2.1c14 3.7 72.2 19.4 95 25.6 12.1 3.3 23.8 6.3 26 6.8 2.2.5 14.4 3.8 27.2 7.3l23.2 6.4 5.1-5.2c4.1-4.3 5-5.9 5-8.8v-3.6l4.7 1.4 4.8 1.5 5.2-5.2 5.3-5.2v-13.3c0-7.3.4-13.3.8-13.3s11.6 2.9 24.7 6.5l24 6.5 5.2-5.2c4.3-4.3 5.3-5.9 5.3-8.6 0-3.1.2-3.4 2.5-2.8 1.4.3 3.6.9 4.9 1.2 1.9.4 3.4-.4 7.5-4.5l5.1-5v-80l-4.2-1.1c-2.4-.6-6.9-1.8-10-2.7l-5.8-1.6v-10.3c0-8.7-.2-10.4-1.6-10.4-.8 0-5.4-1.1-10.2-2.4-4.8-1.3-17.6-4.8-28.4-7.7l-19.8-5.3v-10.3c0-8.3-.3-10.3-1.4-10.3-1.2 0-29.6-7.4-36.8-9.6-1.3-.4-1.8-1.6-1.8-4 0-3.2.2-3.4 2.8-2.8 1.5.4 3.6 1 4.8 1.5 1.6.6 3.1-.3 7.2-4.5 4.3-4.4 5.2-5.8 5.2-8.9v-3.6l4.7 1.4 4.8 1.5 5.2-5.2 5.3-5.2v-40.1l-9.7-2.5-9.8-2.5-.3-10.1-.3-10.2-4.7-1.2c-2.6-.6-7.1-1.8-9.9-2.6l-5.3-1.5V58.1l-4.3-1.2c-2.3-.6-11.3-3.1-19.9-5.4l-15.7-4.2-5.1 5.2-5 5.1v20.1l4.8 1.1c2.6.7 5.6 1.4 6.7 1.7 1.1.3 3.4.9 5 1.3l3 .8.3 10.2.3 10.1 4.2 1.1c16.4 4.3 15.7 3.9 15.7 7.7 0 3.2-.2 3.5-2.2 2.9-7.2-2.1-7.3-2-12.7 3.4-4.1 4.2-5.1 5.8-5.1 8.6 0 3.2-.2 3.4-2.7 2.8-1.6-.4-3.7-1-4.9-1.5-1.7-.6-3.1.2-7.3 4.5-4.1 4.1-5.1 5.8-5.1 8.5 0 3.3 0 3.3-3.7 2.6-2.1-.5-4.5-.8-5.3-.9-1.3 0-1.5-4-1.2-30.3l.3-30.2-4.8-1.4c-2.6-.8-7.2-2-10-2.7l-5.3-1.4V56.3l-9.7-2.4-9.8-2.5-.3-10.2-.3-10.1-3.7-1c-17.1-4.5-52.1-13.9-53.9-14.5-1.4-.4-3.3.9-7.1 4.7zM160.9 151c2.5.7 3.9.6 5-.2 1.3-1 1.4-1 .4.2-.7.8-1.3 2.9-1.3 4.8 0 3.1-.2 3.4-2.2 2.8-1.3-.4-3.5-.9-5-1.2-2.4-.6-2.8-1.2-2.8-4 0-3.7.6-3.9 5.9-2.4zm129.6 114.8l14 3.7.3 13.6.3 13.6-15.1-4-15-4v-13.4c0-7.3.3-13.3.8-13.3.4 0 7 1.7 14.7 3.8z"/></svg>